<?xml version="1.0" encoding="utf-8"?>
<!-- Generator: Adobe Illustrator 27.5.0, SVG Export Plug-In . SVG Version: 6.00 Build 0)  -->
<svg version="1.1" xmlns="http://www.w3.org/2000/svg" xmlns:xlink="http://www.w3.org/1999/xlink" x="0px" y="0px"
	 viewBox="0 0 500 500" style="enable-background:new 0 0 500 500;" xml:space="preserve">
<g id="BACKGROUND">
	<rect style="fill:#FFFFFF;" width="500" height="500"/>
</g>
<g id="OBJECTS">
	<g>
		<g>
			
				<ellipse transform="matrix(0.7071 -0.7071 0.7071 0.7071 -85.1855 197.3162)" style="fill:#C9EAF7;" cx="195.589" cy="201.486" rx="150.548" ry="150.548"/>
			<circle style="fill:#C9EAF7;" cx="365.93" cy="239.873" r="99.369"/>
			<ellipse style="fill:#C9EAF7;" cx="146.043" cy="433.307" rx="63.241" ry="16.798"/>
			<ellipse style="fill:#C9EAF7;" cx="373.316" cy="433.307" rx="63.241" ry="16.798"/>
		</g>
		<path style="fill:#EEF8FD;" d="M316.636,97.282h-115.03c1.624-9.656,15.851-16.259,24.923-12.577
			c0.136-5.545,1.973-10.37,6.577-13.463c4.604-3.093,10.726-3.796,15.912-1.826c1.644-11.354,13.979-20.458,25.406-19.444
			s21.072,11.91,20.69,23.376c6.125-1.584,13.611,1.386,18.229,5.71C317.963,83.382,317.815,91.066,316.636,97.282z"/>
		<path style="fill:#EEF8FD;" d="M367.126,117.467h81.8c-1.155-6.866-11.272-11.562-17.724-8.944
			c-0.097-3.943-1.403-7.374-4.677-9.574c-3.274-2.2-7.628-2.7-11.315-1.299c-1.169-8.074-9.941-14.548-18.067-13.827
			s-14.984,8.469-14.713,16.623c-4.356-1.127-9.679,0.986-12.963,4.061C366.182,107.582,366.288,113.047,367.126,117.467z"/>
		<path style="fill:#EEF8FD;" d="M18.321,202.112h81.8c-1.155-6.866-11.272-11.562-17.724-8.944
			c-0.097-3.943-1.403-7.374-4.677-9.574c-3.274-2.2-7.628-2.7-11.315-1.299c-1.169-8.074-9.941-14.548-18.067-13.827
			c-8.126,0.721-14.984,8.469-14.713,16.623c-4.356-1.127-9.679,0.985-12.963,4.061C17.377,192.227,17.483,197.692,18.321,202.112z"
			/>
		<path style="fill:#EEF8FD;" d="M414.876,299.561h67.3c-0.95-5.649-9.274-9.513-14.582-7.358c-0.079-3.244-1.155-6.067-3.848-7.877
			c-2.694-1.81-6.276-2.221-9.309-1.069c-0.962-6.643-8.178-11.969-14.864-11.376c-6.686,0.593-12.328,6.968-12.105,13.676
			c-3.584-0.927-7.964,0.811-10.665,3.341C414.1,291.428,414.187,295.924,414.876,299.561z"/>
		<path style="fill:#F7B15E;" d="M209.326,325.097c-9.747-20.714-31.647-37.584-54.242-33.902
			c-18.542,3.022-34.2,18.276-39.513,36.296c-3.775-1.693-8.244-1.344-12.069,0.232c-3.825,1.576-7.085,4.276-9.989,7.222
			c-2.862,2.903-5.491,6.167-6.849,10.01c-1.358,3.843-3.169,10.66-0.903,14.049c-7.651,2.087-14.354,7.439-18.083,14.438
			c-3.729,7-4.431,15.548-1.895,23.062l154.698,0.038C220.275,373.651,219.073,345.811,209.326,325.097z"/>
		<path style="fill:#F7B15E;" d="M314.624,325.097c9.747-20.714,31.647-37.584,54.242-33.902
			c18.542,3.022,34.2,18.276,39.513,36.296c3.775-1.693,8.244-1.344,12.069,0.232c3.825,1.576,7.085,4.276,9.989,7.222
			c2.862,2.903,5.491,6.167,6.849,10.01c1.358,3.843,3.169,10.66,0.903,14.049c7.652,2.087,14.354,7.439,18.083,14.438
			c3.729,7,4.431,15.548,1.895,23.062l-154.449-1.102C303.924,372.51,304.877,345.811,314.624,325.097z"/>
		<g>
			<g>
				<path style="fill:#0F6868;" d="M80.135,377.984c1.69,4.667,4.567,11.723,7.889,18.52h17.67
					c-1.565-8.962-4.455-16.459-6.574-22.408c-5.173-14.611-13.037-30.044-20.006-41.512c-6.957-11.488-12.926-19.069-13.905-18.621
					c-1.154,0.526,0.162,9.46,2.911,21.774C70.9,348.054,75.036,363.752,80.135,377.984z"/>
				<g>
					<path style="fill:#30A9A0;" d="M75.027,339.493c2.058,5.004,4.049,10.035,6.01,15.078c3.932,10.081,7.648,20.246,11.18,30.474
						c1.311,3.812,2.587,7.635,3.856,11.46h1.166c-2.727-8.459-5.649-16.857-8.704-25.203c-3.708-10.182-7.654-20.276-11.792-30.289
						c-2.339-5.635-4.663-11.294-7.336-16.777c-0.195-0.397-0.72-0.168-0.559,0.245C70.799,329.526,72.983,334.484,75.027,339.493z"
						/>
				</g>
			</g>
			<g>
				<path style="fill:#0F6868;" d="M111.185,396.504c1.635-9.982,1.917-18.926,2.355-26.068c2.288-37.28-1.635-83.264-3.819-83.398
					c-2.495-0.153-12.842,41.613-15.13,78.894c-0.454,7.391-0.619,19.594,0.255,30.572H111.185z"/>
				<g>
					<path style="fill:#30A9A0;" d="M102.898,396.504c0.752-11.377,1.417-22.761,2.108-34.141
						c0.801-13.185,1.597-26.369,2.372-39.555c0.437-7.426,0.968-14.862,1.168-22.295c0.015-0.54-0.557-0.576-0.609-0.037
						c-0.631,6.57-0.986,13.175-1.407,19.764c-0.421,6.591-0.854,13.181-1.262,19.773c-0.817,13.184-1.638,26.367-2.444,39.551
						c-0.345,5.647-0.691,11.293-1.017,16.941H102.898z"/>
				</g>
			</g>
			<g>
				<path style="fill:#0F6868;" d="M127.393,372.735c1.765,5.978,5.204,15.35,9.352,23.77h14.22l2.617-0.882
					c-1.86-10.179-4.887-18.718-6.938-25.522c-4.829-15.91-11.194-33.332-16.409-46.892c-5.233-13.542-9.423-23.167-10.514-22.943
					c-1.203,0.246-1.869,10.117-0.878,24.098C119.799,338.335,122.511,356.419,127.393,372.735z"/>
				<g>
					<path style="fill:#30A9A0;" d="M125.213,329.812c1.393,5.789,2.843,11.565,4.379,17.318c3.06,11.509,6.374,22.951,9.933,34.316
						c1.584,5.034,3.199,10.06,4.892,15.059h1.159c-3.297-10.059-6.519-20.145-9.494-30.304
						c-3.363-11.408-6.456-22.895-9.359-34.429c-1.623-6.499-3.079-13.051-4.785-19.528c-0.122-0.47-0.681-0.348-0.595,0.132
						C122.421,318.227,123.805,324.029,125.213,329.812z"/>
				</g>
			</g>
			<g>
				<path style="fill:#0F6868;" d="M161.801,396.504c3.168-8.831,4.93-16.915,6.599-23.322c4.301-16.609,7.954-35.392,10.481-50.139
					c2.509-14.742,3.799-25.457,2.747-25.809c-1.169-0.392-6.771,8.074-13.132,20.973c-6.381,12.88-13.456,30.233-17.883,47.126
					c-1.909,7.201-4.349,19.634-5.007,30.485l2.927,0.687H161.801z"/>
				<g>
					<path style="fill:#30A9A0;" d="M153.319,396.504c2.618-10.804,5.274-21.601,8.138-32.342
						c3.137-11.827,6.486-23.598,9.978-35.326c1.975-6.603,4.105-13.172,5.965-19.806c0.136-0.481-0.409-0.658-0.581-0.187
						c-2.081,5.755-3.879,11.62-5.667,17.475c-1.801,5.853-3.559,11.72-5.247,17.607c-3.384,11.771-6.572,23.599-9.562,35.477
						c-1.426,5.689-2.823,11.386-4.138,17.102H153.319z"/>
				</g>
			</g>
			<g>
				<path style="fill:#0F6868;" d="M380.758,396.504c4.05-6.563,7.254-12.589,10.172-17.393c4.304-7.108,8.849-14.62,13.415-21.845
					c4.557-7.229,9.135-14.167,13.245-20.228c4.083-6.084,7.779-11.205,10.263-15.011c2.546-3.742,3.896-6.151,3.521-6.555
					c-0.791-0.872-9.889,3.683-21.185,12.83c-5.649,4.553-11.835,10.235-17.751,16.745c-5.921,6.5-11.565,13.822-16.269,21.393
					c-0.986,1.627-2.106,3.559-3.295,5.702c-1.143,2.169-2.36,4.547-3.534,7.061c-1.128,2.539-2.324,5.156-3.309,7.863
					c-0.507,1.346-0.997,2.696-1.463,4.036c-0.448,1.35-0.852,2.7-1.235,4.022l2.894,1.381H380.758z"/>
				<g>
					<path style="fill:#30A9A0;" d="M371.177,396.504c4.744-9.584,9.927-18.954,15.716-27.949
						c6.523-10.259,13.807-20.023,21.601-29.351c4.42-5.232,9.111-10.236,13.714-15.307c0.338-0.364-0.068-0.767-0.435-0.428
						c-4.408,4.207-8.563,8.697-12.527,13.332c-2.03,2.278-3.931,4.665-5.892,7.003l-2.838,3.59l-1.415,1.798l-1.371,1.832
						c-3.706,4.849-7.152,9.89-10.531,14.97c-3.318,5.121-6.511,10.325-9.496,15.648c-2.721,4.878-5.323,9.825-7.74,14.861H371.177z
						"/>
				</g>
			</g>
			<g>
				<path style="fill:#0F6868;" d="M416.376,373.347c0.936,5.7,2.759,14.726,5.105,23.158h16.695
					c0.006-9.096-1.411-17.032-2.404-23.34c-2.498-16.112-7.677-33.577-12.736-46.723c-5.039-13.169-9.822-22.073-10.856-21.794
					c-1.23,0.33-1.269,9.77-0.531,22.954C412.425,340.795,413.879,357.717,416.376,373.347z"/>
				<g>
					<path style="fill:#30A9A0;" d="M417.873,332.779c1.222,5.544,2.355,11.108,3.44,16.68c2.183,11.142,4.069,22.342,5.698,33.578
						c0.643,4.484,1.232,8.974,1.807,13.467h1.11c-1.128-9.481-2.511-18.932-4.097-28.346c-1.865-11.219-4.057-22.382-6.507-33.487
						c-1.392-6.25-2.788-12.518-4.574-18.665c-0.132-0.446-0.688-0.308-0.592,0.147
						C415.296,321.715,416.671,327.231,417.873,332.779z"/>
				</g>
			</g>
			<g>
				<path style="fill:#0F6868;" d="M451.067,396.504c2.586-6.363,4-12.285,5.327-17.04c7.472-26.776,10.106-61.263,7.992-61.83
					c-2.414-0.648-18.352,27.559-25.798,54.242c-1.59,5.698-3.639,15.544-4.176,24.258l1.296,0.369H451.067z"/>
				<g>
					<path style="fill:#30A9A0;" d="M442.266,396.504c2.369-8.277,4.651-16.582,6.958-24.877l7.861-28.376
						c1.467-5.329,3.028-10.645,4.266-16.031c0.09-0.391-0.462-0.543-0.588-0.161c-1.536,4.661-2.809,9.407-4.144,14.127
						l-4.004,14.166l-7.929,28.353c-1.189,4.264-2.379,8.529-3.545,12.799H442.266z"/>
				</g>
			</g>
		</g>
		<g>
			<path style="fill:#264456;" d="M327.909,96.193H200.444c-8.548,0-15.478,6.929-15.478,15.478v286.59
				c0,8.548,6.93,15.478,15.478,15.478h127.466c8.548,0,15.478-6.93,15.478-15.478V111.67
				C343.387,103.122,336.457,96.193,327.909,96.193z"/>
			<path style="fill:#83B4E0;" d="M324.546,401.401H206.498c-6.6,0-12-5.4-12-12V118.924c0-6.6,5.4-12,12-12h118.048
				c6.6,0,12,5.4,12,12v270.477C336.546,396.001,331.146,401.401,324.546,401.401z"/>
			<path style="fill:#83B4E0;" d="M277.449,101.791h-28.347c-0.518,0-0.941-0.424-0.941-0.941v-0.277
				c0-0.518,0.424-0.941,0.941-0.941h28.347c0.518,0,0.941,0.424,0.941,0.941v0.277C278.39,101.368,277.966,101.791,277.449,101.791
				z"/>
			<path style="fill:#83B4E0;" d="M244.321,101.071c0,1.192-0.967,2.159-2.159,2.159c-1.193,0-2.159-0.967-2.159-2.159
				c0-1.193,0.967-2.159,2.159-2.159C243.355,98.912,244.321,99.879,244.321,101.071z"/>
			<circle style="fill:#83B4E0;" cx="285.587" cy="101.071" r="2.159"/>
			<path style="fill:#4186C6;" d="M313.059,383.273h-93.633c-6.6,0-12-5.4-12-12V141.915c0-6.6,5.4-12,12-12h93.633
				c6.6,0,12,5.4,12,12v229.358C325.059,377.873,319.658,383.273,313.059,383.273z"/>
			<rect x="230.952" y="199.472" style="fill:#EEF8FD;" width="67" height="67"/>
			<g>
				<polygon style="fill:#EEF8FD;" points="306.717,275.237 284.451,275.237 284.451,270.344 301.824,270.344 301.824,255.127 
					306.717,255.127 				"/>
			</g>
			<g>
				<polygon style="fill:#EEF8FD;" points="306.717,214.009 301.824,214.009 301.824,195.599 281.624,195.599 281.624,190.706 
					306.717,190.706 				"/>
			</g>
			<g>
				<polygon style="fill:#EEF8FD;" points="227.079,213.495 222.186,213.495 222.186,190.706 246.931,190.706 246.931,195.599 
					227.079,195.599 				"/>
			</g>
			<g>
				<polygon style="fill:#EEF8FD;" points="248.473,275.237 222.186,275.237 222.186,254.87 227.079,254.87 227.079,270.344 
					248.473,270.344 				"/>
			</g>
			<path style="fill:#EEF8FD;" d="M301.642,299.586h-68.306c-1.15,0-2.082,0.558-2.082,1.247v13.954
				c0,0.688,0.932,1.247,2.082,1.247h68.306c1.15,0,2.082-0.558,2.082-1.247v-13.954
				C303.724,300.144,302.792,299.586,301.642,299.586z"/>
			<text transform="matrix(1 0 0 1 236.9085 311.6631)" style="fill:#4186C6; font-family:'Montserrat-Bold'; font-size:9.7863px;">SCANNING</text>
			<path style="fill:#264456;" d="M223.009,104.809v3.017c0,3.399,2.756,6.155,6.155,6.155h70.025c3.399,0,6.155-2.756,6.155-6.155
				v-3.017H223.009z"/>
			<g>
				<g style="opacity:0.33;">
					<path style="fill:#EEF8FD;" d="M203.214,269.324c-0.622,0-1.25-0.177-1.806-0.548c-1.499-0.999-1.904-3.025-0.905-4.524
						l94.524-141.786c1-1.499,3.026-1.904,4.524-0.905c1.499,0.999,1.904,3.025,0.905,4.524l-94.524,141.786
						C205.303,268.814,204.269,269.324,203.214,269.324z"/>
				</g>
				<g style="opacity:0.33;">
					<path style="fill:#EEF8FD;" d="M199.739,357.593c-0.627,0-1.26-0.18-1.819-0.557c-1.495-1.007-1.89-3.034-0.883-4.528
						l84.018-124.734c1.006-1.494,3.034-1.89,4.528-0.883c1.495,1.006,1.89,3.033,0.883,4.528l-84.018,124.733
						C201.817,357.089,200.787,357.593,199.739,357.593z"/>
				</g>
				<g style="opacity:0.33;">
					<path style="fill:#EEF8FD;" d="M258.843,356.868c-0.623,0-1.253-0.178-1.809-0.549c-1.498-1.001-1.9-3.027-0.9-4.525
						l69.395-103.853c1.001-1.498,3.027-1.901,4.525-0.9c1.498,1.001,1.9,3.027,0.9,4.524l-69.395,103.853
						C260.93,356.359,259.896,356.868,258.843,356.868z"/>
				</g>
			</g>
		</g>
		<g>
			<g>
				<path style="fill:#F49B91;" d="M339.573,392.622c0,0-2.947,23.44-5.757,27.655c-2.346,3.519-5.044,5.866-2.698,9.15
					c1.419,1.987,14.456,5.65,18.537,6.71c0.834,0.216,1.69-0.25,1.959-1.069c0.363-1.105,0.494-2.657-0.888-3.866
					c-2.411-2.11-7.759-8.461-7.759-8.461l11.376-32.379L339.573,392.622z"/>
				<path style="fill:#666DB2;" d="M342.966,422.74l0.006-0.016c-2.299,2.313-5.712,3.359-8.758,2.458
					c-1.001-0.296-2.02-0.894-2.61-1.771c-1.352,2.01-2.069,3.8-0.486,6.017c1.419,1.987,14.456,5.65,18.537,6.71
					c0.834,0.216,1.69-0.25,1.959-1.069c0.363-1.105,0.494-2.657-0.888-3.866C348.314,429.092,342.966,422.74,342.966,422.74z"/>
				<path style="fill:#DE706B;" d="M350.789,400.476l3.553-10.114l-14.769,2.26c0,0-0.338,2.688-0.894,6.402
					C342.547,400.374,346.711,400.866,350.789,400.476z"/>
			</g>
			<g>
				<path style="fill:#F49B91;" d="M369.545,394.137c0,0,4.185,23.251,2.762,28.113c-1.188,4.059-3.063,7.104,0.157,9.538
					c1.948,1.473,15.483,1.077,19.695,0.869c0.861-0.042,1.538-0.743,1.551-1.605c0.017-1.163-0.322-2.683-2.002-3.425
					c-2.931-1.294-9.931-5.759-9.931-5.759l1.19-34.299L369.545,394.137z"/>
				<path style="fill:#666DB2;" d="M381.775,421.869l0.001-0.017c-1.504,2.894-4.449,4.911-7.625,4.96
					c-1.044,0.016-2.195-0.25-3.02-0.911c-0.69,2.322-0.84,4.245,1.333,5.887c1.948,1.473,15.483,1.076,19.695,0.869
					c0.861-0.042,1.538-0.743,1.551-1.605c0.017-1.163-0.322-2.683-2.002-3.425C388.775,426.334,381.775,421.869,381.775,421.869z"
					/>
				<path style="fill:#DE706B;" d="M382.532,400.049l0.433-12.479l-13.42,6.567c0,0,0.48,2.668,1.059,6.382
					C374.575,400.966,378.609,400.806,382.532,400.049z"/>
			</g>
			<path style="fill:#666DB2;" d="M393.598,271.519l-40.212,2.622c-6.05,7.357-8.544,17.076-9.111,26.584
				c-0.567,9.508,0.619,19.022,1.078,28.536c1.063,22.054-1.822,44.293-8.476,65.347c17.395,2.553,35.373,1.924,52.798-0.412
				c4.623-18.675,6.762-38.043,8.749-57.178C400.743,314.676,400.614,290.813,393.598,271.519z"/>
			<g>
				<g>
					<path style="fill:#747DBB;" d="M354.417,280.145c-8.037,14.9-2.522,32.364-1.119,48.129c1.246,13.998,0.6,28.321-1.734,42.172
						c-0.674,4.003-1.515,7.982-2.542,11.91c-0.986,3.771-2.222,7.446-3.293,11.188c-0.036,0.126,0.15,0.208,0.214,0.09
						c1.554-2.871,2.575-6.06,3.555-9.164c1.073-3.397,1.829-6.912,2.5-10.408c1.378-7.179,2.213-14.464,2.626-21.76
						c0.387-6.83,0.41-13.691-0.026-20.519c-0.494-7.735-1.945-15.343-2.807-23.036c-1.069-9.536-0.949-19.433,3.126-28.31
						C355.068,280.105,354.596,279.812,354.417,280.145L354.417,280.145z"/>
				</g>
			</g>
			<path style="fill:#5964AA;" d="M354.747,284.497c2.78-0.629,5.565-1.662,8.396-1.329c3.46,0.408,6.367,2.786,9.723,3.725
				c4.49,1.255,9.234-0.169,13.73-1.402c3.423-0.938,7.116-1.744,10.547-1.205c-0.909-4.418-2.066-8.698-3.545-12.767l-40.212,2.622
				c-2.465,2.998-4.331,6.391-5.726,9.999C349.753,285.192,352.398,285.028,354.747,284.497z"/>
			<path style="fill:#F49089;" d="M399.323,236.619l0.849,19.716l-4.811,0.189c0,0-6.77-14.326-4.528-18.49
				C392.333,235.249,399.323,236.619,399.323,236.619z"/>
			<path style="fill:#DE706B;" d="M399.323,236.619c0,0-6.99-1.371-8.49,1.415c-0.669,1.243-0.532,3.393-0.016,5.795
				c2.671-1.558,5.629-2.615,8.682-3.102L399.323,236.619z"/>
			<path style="fill:#5683C2;" d="M395.246,180.7c-1.008-3.162-4.33-5.13-7.623-5.541c-1.606-0.2-3.222-0.236-4.831-0.059
				c-1.644,0.181-3.405,0.624-5.101,0.585c-1.809-0.042-3.5-0.352-5.289,0.143c-2.044,0.565-3.913,1.924-4.838,3.832
				c-1.282,2.643-0.71,6.06-2.547,8.353c-1.061,1.324-2.72,1.988-4.109,2.964c-2.319,1.628-3.94,4.313-4.012,7.145
				c-0.072,2.832,1.534,5.712,4.108,6.896c2.981,1.372,6.483,0.386,9.735,0.825c3.086,0.417,5.963,2.126,9.077,2.059
				c2.412-0.052,4.719-1.177,7.131-1.128c1.391,0.029,2.947,0.406,4.057-0.433c0.968-0.732,1.163-2.131,0.935-3.323
				c-0.229-1.191-0.791-2.296-1.048-3.482c-0.701-3.226,0.912-6.45,2.406-9.393S396.249,183.845,395.246,180.7z"/>
			<path style="fill:#E98E31;" d="M344.316,234.75c0,0,1.648,4.279,8.17,5.97l2.382-5.016L344.316,234.75z"/>
			<path style="fill:#FAAD58;" d="M365.827,205.553c-4.423-1.427-9.447,0.211-12.875,3.349c-3.428,3.138-5.437,7.564-6.566,12.071
				c-1.13,4.508-1.463,9.169-2.07,13.777c3.709,0.635,7.652,0.54,11.241,0.951c2.895,13.9,0.052,28.903-8.689,40.093
				c1.254,2.447,4.658,3.533,7.39,3.225c2.732-0.307,5.433-1.281,8.162-0.945c4.294,0.528,7.953,4.221,12.263,3.842
				c2.459-0.217,4.609-1.749,7.021-2.273c2.065-0.448,4.212-0.137,6.291,0.241c2.079,0.377,4.181,0.822,6.285,0.633
				c2.104-0.189,4.26-1.123,5.364-2.925c-0.366-7.997-2.149-15.76-4.922-23.27c-1.018-2.757-2.194-5.464-2.949-8.304
				c-0.755-2.84-1.075-5.865-0.355-8.714c3.296-0.379,6.469-0.546,9.765-0.924c-0.453-6.289-2.353-11.978-5.549-17.413
				c-1.84-3.13-4.126-6.07-7.105-8.145c-3.225-2.246-7.092-3.369-10.938-4.181C373.595,205.794,369.715,206.807,365.827,205.553z"/>
			<path style="fill:#3D6EA2;" d="M385.467,200.944c1.617-0.584,2.856-1.797,3.678-3.286c1.108-2.007,0.279-4.105,0.779-6.233
				c0.357-1.519,1.352-2.863,1.504-4.416c0.185-1.897-1.007-3.764-2.665-4.703s-3.889-0.898-5.753-0.501
				c0.456,0.511,0.563,2.052,0.227,2.648c-0.337,0.596-0.864,1.059-1.272,1.609c-0.68,0.918-1.002,2.045-1.311,3.144
				c-1.026,3.647-1.933,7.499-2.952,11.157C380.329,200.643,382.86,201.886,385.467,200.944z"/>
			<path style="fill:#F49B91;" d="M387.524,186.131c1.07,1.625,1.499,4.19,1.352,6.13c-0.147,1.94-0.75,3.694-1.578,5.454
				c-0.749,1.594-1.964,3.174-3.459,4.105c-1.495,0.931-3.938,1.098-5.198-0.133c-0.312,1.763-0.658,3.691-0.97,5.453
				c0.736,0.158,1.624,0.537,2.36,0.694c1.221,5.678,0.679,13.1-1.224,18.587c-3.62-7.073-7.949-14.999-13.351-20.825
				c2.826,0.005,6.438-0.452,8.236-2.986c1.797-2.534,2.581-6.89,0.243-8.936c-0.624-0.547-1.297-1.19-1.329-2.019
				c-0.025-0.655,0.401-1.286,0.99-1.575c0.589-0.288,1.484-0.167,2.078,0.111c1.973-0.35,3.817-1.389,5.139-2.895
				c1.322-1.506,2.113-3.469,2.205-5.471C385.721,183.651,386.268,184.224,387.524,186.131z"/>
			<path style="fill:#DE706B;" d="M376.124,197.042c0,0-1.122,7.77,1.549,10.098c0.312-1.763,0.658-3.691,0.97-5.453
				C378.642,201.687,376.944,200.28,376.124,197.042z"/>
			<g>
				<g>
					<path style="fill:#E98E31;" d="M387.733,219.466c0.974,2.721,1.82,5.637,2.085,8.52c0.129,1.409,0.23,2.816,0.268,4.23
						c0.04,1.47-0.088,2.941-0.033,4.409c0.034,0.905,1.476,1.201,1.657,0.224c0.538-2.899,0.18-6.201-0.484-9.054
						c-0.695-2.985-1.553-5.822-2.915-8.573C388.154,218.904,387.611,219.126,387.733,219.466L387.733,219.466z"/>
				</g>
			</g>
			<g>
				<g>
					<path style="fill:#E98E31;" d="M364.233,225.954c0.053,2.166,0.271,4.363,0.768,6.475c0.484,2.059,1.114,4.312,2.286,6.096
						c0.51,0.776,1.592,0.107,1.224-0.716c-0.848-1.896-1.643-3.731-2.171-5.749c-0.527-2.012-0.953-4.042-1.216-6.106
						C365.054,225.404,364.219,225.364,364.233,225.954L364.233,225.954z"/>
				</g>
			</g>
			<g>
				<g>
					<path style="fill:#E98E31;" d="M350.275,236.014c3.033,0.716,6.209,0.642,9.296,0.946c1.572,0.155,3.151,0.307,4.688,0.689
						c0.78,0.194,1.544,0.438,2.262,0.804c0.199,0.101,0.698,0.262,0.639,0.536c-0.028,0.13-0.67,0.39-0.791,0.48
						c-0.545,0.401-0.464,1.542,0.393,1.452c1.458-0.153,2.875-1.796,1.607-3.101c-0.579-0.596-1.493-0.877-2.258-1.14
						c-1.019-0.35-2.067-0.581-3.132-0.739c-4.144-0.618-8.455-0.693-12.633-0.456C350.056,235.501,349.965,235.941,350.275,236.014
						L350.275,236.014z"/>
				</g>
			</g>
			<g>
				<path style="fill:#E98E31;" d="M365.667,206.283c4.655,4.112,7.358,8.821,9.546,14.589c0.522,1.377,1.092,2.74,1.891,3.982
					c0.889,1.381,1.983,2.619,2.969,3.929c1.91,2.536,3.576,5.254,5.035,8.072c0.798,1.541,1.575,3.096,2.348,4.65
					c0.824,1.657,1.435,3.412,2.25,5.067c0.114,0.232,0.453,0.064,0.402-0.169c-0.345-1.556-0.972-3.104-1.506-4.605
					c-0.52-1.461-1.065-2.907-1.739-4.305c-1.404-2.909-3.067-5.712-4.944-8.34c-0.951-1.332-2.006-2.581-2.983-3.894
					c-1.014-1.363-1.742-2.825-2.381-4.394c-1.131-2.776-2.379-5.446-4.037-7.954c-1.853-2.804-4.116-5.361-6.766-7.434
					c-0.33-0.258-0.983-0.32-0.654-0.029L365.667,206.283z"/>
			</g>
			<g>
				<path style="fill:#E98E31;" d="M380.038,208.104c0.161,3.089,0.424,5.693-0.03,8.766c-0.419,2.838-1.217,5.639-1.836,8.439
					c-0.15,0.677,0.893,0.966,1.041,0.287c0.622-2.849,1.327-5.708,1.68-8.606c0.383-3.14-0.242-5.835-0.589-8.962
					c-0.034-0.31-0.358-0.591-0.341-0.265L380.038,208.104z"/>
			</g>
			<path style="fill:#E98E31;" d="M365.598,237.362c0.251,1.003,0.355,2.002,0.606,3.006c0.488-0.065,1.152-0.225,1.517-0.556
				c0.365-0.331,0.548-0.903,0.309-1.334c-0.214-0.385-0.676-0.547-1.106-0.643C366.496,237.739,365.922,237.659,365.598,237.362z"
				/>
			<path style="fill:#675161;" d="M380.413,188.589c0.015,0.149,2.454-0.027,3.475,0.614c0.209,0.131,0.418,0.283,0.662,0.32
				c0.578,0.088,0.73-0.618,0.253-0.869c-0.353-0.185-0.661-0.301-0.995-0.389C382.628,187.957,380.578,187.915,380.413,188.589z"/>
			<path style="fill:#675161;" d="M388.854,189.219c-0.028,0.147-0.071-0.426-1.144,0.123c-0.22,0.113-0.473,0.259-0.719,0.275
				c-0.584,0.037-0.674-0.68-0.175-0.888c0.367-0.153,0.658-0.223,1.003-0.21C388.511,188.544,388.819,188.918,388.854,189.219z"/>
			<path style="fill:#675161;" d="M383.942,191.324c-0.083,0.587-0.51,1.013-0.955,0.95c-0.444-0.063-0.738-0.589-0.655-1.177
				c0.083-0.587,0.51-1.013,0.955-0.95C383.732,190.209,384.025,190.736,383.942,191.324z"/>
			<path style="fill:#675161;" d="M388.716,191.527c-0.083,0.587-0.51,1.013-0.955,0.95c-0.444-0.063-0.738-0.59-0.655-1.177
				c0.083-0.587,0.51-1.013,0.955-0.95C388.505,190.412,388.799,190.939,388.716,191.527z"/>
			<path style="fill:#DE706B;" d="M386.546,194.544c0.116,0.41,0.249,0.842,0.138,1.253c-0.106,0.393-0.448,0.711-0.847,0.791
				c-0.399,0.079-0.836-0.084-1.085-0.406c0.366,0.101,0.769-0.109,0.977-0.427c0.208-0.318,0.25-0.719,0.216-1.098
				c-0.035-0.378-0.14-0.747-0.204-1.121c-0.103-0.603-0.243-1.827,0.204-2.298C386.171,192.335,386.235,193.451,386.546,194.544z"
				/>
			<path style="opacity:0.21;fill:#FFF9F4;" d="M385.402,209.928c7.967,5.488,13.291,14.646,14.119,24.285
				c-1.546,0.337-3.353,0.614-4.899,0.951C393.962,226.174,390.455,217.393,385.402,209.928z"/>
			<path style="fill:#EE8780;" d="M386.152,198.789c-1.42,0.366-2.89,0.249-4.04-0.321c-0.147,0.662-0.242,1.313,0.049,1.863
				c0.29,0.55,0.915,0.938,1.639,0.874c0.618-0.055,1.229-0.43,1.652-0.906C385.874,199.823,385.986,199.352,386.152,198.789z"/>
			<path style="opacity:0.58;fill:#E98E31;" d="M387.918,242.082c-10.16-0.5-20.761-2.867-31.599-6.653
				c0.931,5.767,0.536,14.251-0.492,19.957C367.684,256.13,380.096,251.023,387.918,242.082z"/>
			<path style="fill:#DE706B;" d="M382.031,199.961c0.03,0.127,0.067,0.252,0.13,0.37c0.29,0.55,0.915,0.938,1.639,0.874
				c0.524-0.047,1.037-0.329,1.44-0.703c-0.401-0.359-0.892-0.62-1.42-0.728C383.223,199.652,382.593,199.725,382.031,199.961z"/>
			<path style="fill:#675161;" d="M386.152,198.789c-1.42,0.366-2.89,0.249-4.04-0.321c-0.115,0.52-0.191,1.03-0.081,1.493
				c0.562-0.236,1.192-0.309,1.789-0.187c0.528,0.108,1.018,0.369,1.42,0.728c0.072-0.067,0.148-0.131,0.212-0.203
				C385.874,199.823,385.986,199.352,386.152,198.789z"/>
			<path style="fill:#A5DDEC;" d="M435.037,227.004h-35.24c-0.974,0-1.81,0.695-1.987,1.653l-4.565,24.694H377.57
				c-0.521,0-0.943,0.422-0.943,0.943v1.842c0,0.521,0.422,0.943,0.943,0.943h35.236l15.539,0.15
				c0.931,0.009,1.747-0.619,1.977-1.521l6.672-26.185C437.32,228.246,436.355,227.004,435.037,227.004z"/>
			<g>
				<path style="fill:#F49B91;" d="M365.887,236.781c1.169,5.316,2.682,12.264,4.737,17.304c13.62,0.668,26.739,1.337,40.072,2.457
					c-3.006,3.37-7.568,5.26-12.08,5.063c-0.715,0.379-1.932,0.931-2.674,1.253c-7.555,3.285-15.331,4.793-23.548,4.194
					c-3.014-0.22-6.088-0.735-8.699-2.258c-3.271-1.908-5.488-5.204-7.205-8.58c-3.229-6.349-6.184-13.726-6.511-20.842
					C355.116,235.124,361.028,235.316,365.887,236.781z"/>
				<path style="fill:#E2756D;" d="M401.574,255.816l3.48,0.293c0,0-2.711,1.978-3.7,1.868s0.769-0.879,0.879-1.282
					C402.343,256.293,402.343,255.89,401.574,255.816z"/>
			</g>
			<path style="fill:#F5FBFD;" d="M417.55,235.14c-3.318,0-6.46,2.702-7.018,6.035c-0.558,3.333,1.68,6.035,4.998,6.035
				c3.318,0,6.46-2.702,7.018-6.035C423.106,237.842,420.868,235.14,417.55,235.14z"/>
			<path style="fill:#7ACFE6;" d="M411.284,242.035c0.558-3.333,3.7-6.035,7.018-6.035c1.39,0,2.586,0.479,3.47,1.275
				c-0.884-1.305-2.386-2.135-4.223-2.135c-3.318,0-6.46,2.702-7.018,6.035c-0.324,1.937,0.3,3.656,1.527,4.76
				C411.346,244.882,411.035,243.523,411.284,242.035z"/>
			<g>
				<path style="fill:#DE706B;" d="M363.523,254.531c2.232-0.62,4.588-0.765,6.878-0.41c0.382,0.059,0.458-0.474,0.071-0.526
					c-2.366-0.318-4.763-0.108-7.041,0.604C363.221,254.265,363.308,254.59,363.523,254.531L363.523,254.531z"/>
			</g>
			<g>
				<path style="fill:#DE706B;" d="M367.257,242.834c-0.504-2.116-0.96-4.187-1.37-6.053c-4.859-1.465-10.771-1.657-15.908-1.408
					c0.064,1.386,0.23,2.782,0.476,4.179C356.205,239.422,361.977,240.558,367.257,242.834z"/>
				<path style="fill:#E2756D;" d="M401.574,255.816l3.48,0.293c0,0-2.711,1.978-3.7,1.868s0.769-0.879,0.879-1.282
					C402.343,256.293,402.343,255.89,401.574,255.816z"/>
			</g>
			<path style="opacity:0.61;fill:#6297D0;" d="M371.547,177.596c-0.953,0.351-1.747,1.048-2.313,1.891
				c-0.829,1.234-1.187,2.62-1.379,4.042c-0.099,0.731,0.814,1.151,1.316,0.611c0.79-0.85,1.428-2.449,1.861-2.173l0.336,0.796
				c-0.092,0.533,0.385,0.98,0.914,0.866c0.651-0.139,1.354-0.049,1.929,0.289c0.397,0.233,0.736,0.569,1.165,0.737
				c1.079,0.421,2.217-0.343,3.187-0.977c0.969-0.634,2.352-1.139,3.191-0.341c0.189-0.623-0.381-1.261-1.012-1.421
				c-0.631-0.16-1.291,0.006-1.934,0.11c-0.642,0.104-1.359,0.129-1.882-0.259c-0.739-0.547-0.757-1.623-1.107-2.473
				C375.113,177.582,373.4,176.914,371.547,177.596z"/>
			<path style="opacity:0.61;fill:#6297D0;" d="M358.662,199.115c0.025,0.203,0.062,0.415,0.189,0.576
				c0.35,0.442,1.081,0.2,1.479-0.2c0.397-0.4,0.708-0.942,1.246-1.11c0.769-0.239,1.514,0.417,1.997,1.062
				c0.483,0.645,1.006,1.406,1.807,1.491c1.262,0.134,2.033-1.466,3.26-1.791c1.077-0.285,2.197,0.485,3.295,0.3
				c1.097-0.185,1.864-1.466,1.509-2.52c-0.104,0.712-1.109,0.891-1.759,0.584c-0.65-0.308-1.143-0.897-1.813-1.16
				c-0.87-0.341-1.842-0.068-2.76,0.102c-0.919,0.17-2.004,0.178-2.627-0.518c-0.525-0.586-0.528-1.456-0.747-2.212
				c-0.72-2.483-2.81-0.962-3.751,0.356C358.956,195.518,358.447,197.347,358.662,199.115z"/>
			<path style="opacity:0.21;fill:#FFF9F4;" d="M370.659,234.5c0.002,0.732-0.049,1.513,0.325,2.142
				c0.596,1.001,2.017,1.164,3.134,0.831c1.117-0.333,2.098-1.028,3.212-1.367c3.11-0.948,6.828,0.963,9.576-0.775
				c1.204-0.762,1.944-2.115,2.227-3.511c0.283-1.396,0.154-2.842-0.066-4.25c-0.114-0.727-0.305-1.534-0.926-1.929
				c-0.788-0.502-1.859-0.066-2.527,0.588c-0.668,0.654-1.13,1.509-1.866,2.086c-1.547,1.212-3.76,0.852-5.681,0.432
				c-2.04-0.447-4.08-0.894-6.121-1.341c-1.549-0.339-3.224-0.45-2.596,1.559C369.943,230.857,370.653,232.459,370.659,234.5z"/>
			<path style="opacity:0.21;fill:#FFF9F4;" d="M354.962,233.541c-2.727,0.167-5.373-0.21-8.049-0.759
				c-0.139-5.501,0.417-11.135,2.707-16.138c2.29-5.003,6.517-9.319,11.837-10.726C356.175,213.965,353.829,223.983,354.962,233.541
				z"/>
			<path style="opacity:0.21;fill:#E0E2F2;" d="M342.692,390.568c3.667-15.03,7.356-30.24,7.303-45.71
				c-0.066-19.628-6.119-39.655-0.853-58.564c-0.496,16.503,8.866,30.939,11.998,47.15
				C365.122,354.057,357.533,375.72,342.692,390.568z"/>
			<polygon style="fill:#F5FBFD;" points="398.755,228.784 394.887,255.021 379.521,253.976 393.842,253.976 			"/>
			<path style="opacity:0.54;fill:#8089C3;" d="M339.549,426.334l9.755,5.013c0.277,0.142,0.543-0.207,0.333-0.436l-6.606-7.207
				C343.03,423.704,341.56,426.257,339.549,426.334z"/>
			<path style="opacity:0.54;fill:#8089C3;" d="M379.327,426.149l10.722,2.307c0.304,0.065,0.47-0.341,0.208-0.508l-8.252-5.243
				C382.005,422.704,381.249,425.551,379.327,426.149z"/>
		</g>
		<g>
			<g>
				<path style="fill:#F49B91;" d="M115.325,324.18c-4.664,29.637-0.315,60.66-9.226,89.308c1.875,1.539,1.567,4.625,3.259,6.363
					c1.359,1.396,3.37,1.89,5.27,2.323c0.073-0.092,0.146-0.184,0.219-0.276c-0.806-0.289-0.353-0.514-0.162-1.349
					c1.555-6.825,3.836-13.462,5.679-20.215c2.359-8.641,3.997-17.459,5.723-26.248c3.561-18.141,7.503-36.208,11.821-54.184
					c-3.871,0.047-7.839,0.07-11.654,0.73C122.437,321.293,118.409,321.84,115.325,324.18z"/>
				<path style="fill:#E4E7E9;" d="M110.366,393.708c-0.917,6.686-2.25,13.294-4.268,19.78c1.875,1.539,1.567,4.625,3.259,6.363
					c1.359,1.396,3.37,1.89,5.27,2.323c0.073-0.092,0.146-0.184,0.219-0.276c-0.806-0.289-0.353-0.514-0.162-1.349
					c1.555-6.825,3.836-13.462,5.679-20.215c0.554-2.031,1.066-4.073,1.552-6.122C118.088,393.714,114.221,393.547,110.366,393.708z
					"/>
				<path style="fill:#6482AF;" d="M103.334,412.403c0,0,7.111,0.249,7.61,1.372s-1.497,6.362-0.249,6.861
					c1.247,0.499,2.564,0.154,4.151,1.262c1.587,1.108-0.284,8.967-0.284,8.967s-23.702,0.125-30.064-9.107
					c0,0-1.248-2.744,2.744-3.368c3.992-0.624,10.728,1.746,12.974-0.499C102.461,415.647,103.334,412.403,103.334,412.403z"/>
				<path style="fill:#DE706B;" d="M126.252,320.633c-3.815,0.66-7.843,1.208-10.927,3.548c-0.312,1.981-0.581,3.969-0.819,5.961
					c6.895-1.335,14.068-1.222,20.915,0.348c0.818-3.531,1.638-7.062,2.484-10.586C134.035,319.949,130.067,319.972,126.252,320.633
					z"/>
			</g>
			<g>
				<path style="fill:#F49B91;" d="M155.362,331.853c9.793,28.359,28.194,53.711,33.771,83.19c2.378,0.479,3.554,3.348,5.864,4.089
					c1.855,0.595,3.863,0.087,5.743-0.422c0.021-0.115,0.043-0.231,0.064-0.346c-0.847,0.124-0.553-0.289-0.777-1.115
					c-1.831-6.757-2.932-13.687-4.474-20.515c-1.973-8.737-4.665-17.292-7.267-25.863c-5.37-17.69-10.37-35.493-14.994-53.393
					c-3.396,1.858-6.889,3.741-9.948,6.114C160.287,325.965,156.987,328.339,155.362,331.853z"/>
				<path style="fill:#E4E7E9;" d="M183.618,395.574c2.329,6.334,4.253,12.795,5.516,19.469c2.378,0.479,3.554,3.348,5.864,4.089
					c1.855,0.595,3.863,0.087,5.743-0.422c0.021-0.115,0.043-0.231,0.064-0.346c-0.847,0.124-0.553-0.289-0.777-1.115
					c-1.831-6.757-2.931-13.687-4.473-20.515c-0.464-2.054-0.97-4.097-1.503-6.134C190.439,391.955,186.946,393.622,183.618,395.574
					z"/>
				<path style="fill:#6482AF;" d="M186.183,415.382c0,0,6.396-3.117,7.363-2.36c0.968,0.757,1.664,6.32,3,6.175
					c1.336-0.145,2.337-1.067,4.258-0.834c1.921,0.233,3.958,8.051,3.958,8.051s-20.87,11.235-30.821,6.07
					c0,0-2.39-1.838,0.842-4.262c3.232-2.424,10.293-3.493,11.222-6.53C186.935,418.656,186.183,415.382,186.183,415.382z"/>
				<path style="fill:#DE706B;" d="M163.346,323.592c-3.059,2.373-8.506-0.596-10.131,2.918c0.655,1.896,3.497,9.12,4.222,10.991
					c5.462-4.415,11.849-7.683,18.631-9.51c-0.936-3.502-1.868-7.004-2.775-10.514C169.897,319.336,166.404,321.218,163.346,323.592
					z"/>
			</g>
			<path style="fill:#CDD1E9;" d="M124.559,267.167c0,0-2.032,4.802-2.032,8.495c0,3.693-1.477,7.572-1.847,11.819
				c-0.369,4.248-7.202,39.151-7.202,39.151h28.809l4.432-20.13l5.91,20.499h30.656l-7.018-60.758L124.559,267.167z"/>
			<path style="opacity:0.51;fill:#CDD1E9;" d="M177.455,276.522l-1.187-10.279l-51.709,0.923c0,0-1.808,4.276-2.011,7.862
				C140.576,270.83,159.68,271.364,177.455,276.522z"/>
			<g>
				<g>
					<path style="fill:#ACB7DD;" d="M164.176,271.766c2.23,4.284,4.378,9.711,9.272,11.563c0.481,0.182,0.796-0.588,0.349-0.827
						c-1.006-0.537-1.983-1.055-2.858-1.799c-0.912-0.775-1.684-1.681-2.348-2.674c-0.671-1.004-1.234-2.07-1.837-3.115
						c-0.669-1.16-1.352-2.313-2.029-3.469C164.518,271.089,163.987,271.403,164.176,271.766L164.176,271.766z"/>
				</g>
				<g>
					<path style="fill:#ACB7DD;" d="M167.595,272.549c1.024,1.894,2.217,3.687,3.563,5.366c0.661,0.824,1.365,1.611,2.105,2.365
						c0.737,0.75,1.531,1.663,2.446,2.193c0.48,0.278,0.889-0.338,0.564-0.73c-0.334-0.402-0.774-0.722-1.158-1.076
						c-0.368-0.338-0.729-0.684-1.083-1.038c-0.745-0.746-1.458-1.527-2.14-2.331c-1.359-1.602-2.559-3.332-3.604-5.154
						C168.03,271.695,167.349,272.095,167.595,272.549L167.595,272.549z"/>
				</g>
				<g>
					<path style="fill:#ACB7DD;" d="M129.735,270.433c-0.503,2.084-1.413,4.04-2.678,5.771c-0.617,0.845-1.324,1.625-2.094,2.333
						c-0.397,0.365-0.821,0.7-1.26,1.012c-0.443,0.315-0.947,0.567-1.357,0.922c-0.495,0.429,0.137,1.045,0.641,0.831
						c0.509-0.216,0.974-0.646,1.402-0.993c0.41-0.333,0.799-0.689,1.179-1.055c0.809-0.778,1.539-1.634,2.184-2.553
						c1.28-1.825,2.188-3.904,2.659-6.082C130.505,270.181,129.841,269.992,129.735,270.433L129.735,270.433z"/>
				</g>
				<g>
					<path style="fill:#ACB7DD;" d="M133.207,271.858c-0.862,2.817-2.357,5.408-4.365,7.564c-2.038,2.188-4.379,3.712-7.073,4.966
						c-0.705,0.328-0.201,1.555,0.535,1.269c5.749-2.233,10.143-7.702,11.702-13.579
						C134.143,271.561,133.363,271.349,133.207,271.858L133.207,271.858z"/>
				</g>
				<g>
					<path style="fill:#ACB7DD;" d="M145.895,271.783c0.05,10.534,0.575,21.047,0.63,31.58c0.003,0.501,0.797,0.5,0.777,0
						c-0.416-10.526-0.361-21.053-0.783-31.58C146.503,271.383,145.893,271.379,145.895,271.783L145.895,271.783z"/>
				</g>
				<g>
					<path style="fill:#ACB7DD;" d="M142.1,271.98c0.059,1.406,0.118,2.812,0.176,4.218c0.055,1.311,0.089,2.627,0.345,3.918
						c0.215,1.088,0.603,2.161,1.251,3.069c0.562,0.788,1.428,1.683,2.412,1.893c0.546,0.117,0.872-0.602,0.383-0.908
						c-0.842-0.529-1.55-0.946-2.105-1.814c-0.593-0.927-0.892-1.991-1.061-3.071c-0.376-2.401-0.422-4.883-0.599-7.305
						C142.866,271.47,142.079,271.459,142.1,271.98L142.1,271.98z"/>
				</g>
				<g>
					<path style="fill:#ACB7DD;" d="M143.698,288.628c1.419-0.233,2.85-0.381,4.286-0.443c0.698-0.03,1.397-0.04,2.096-0.03
						c0.719,0.011,1.463,0.096,2.179,0.036c0.529-0.044,0.727-0.863,0.134-0.989c-0.747-0.158-1.552-0.137-2.313-0.133
						c-0.727,0.004-1.454,0.029-2.179,0.077c-1.495,0.098-2.983,0.288-4.456,0.56C142.836,287.818,143.099,288.726,143.698,288.628
						L143.698,288.628z"/>
				</g>
				<g>
					<path style="fill:#ACB7DD;" d="M142.276,292.837c1.826-0.14,3.649-0.292,5.472-0.462c1.803-0.168,3.615-0.289,5.406-0.559
						c0.604-0.091,0.46-1.092-0.144-1.064c-1.793,0.084-3.582,0.324-5.367,0.51c-1.791,0.187-3.579,0.391-5.367,0.607
						C141.673,291.941,141.645,292.885,142.276,292.837L142.276,292.837z"/>
				</g>
			</g>
			<path style="fill:#3A6CA0;" d="M118.482,238.669c0,0-2.56-1.513-3.181-4.965c-0.621-3.452,3.53-4.616,3.53-4.616l1.629,0.737
				C120.46,229.825,121.003,236.807,118.482,238.669z"/>
			<path style="fill:#EEF7FC;" d="M122.281,193.726h-9.134c-0.694,0-1.289-0.496-1.415-1.179l-3.638-19.87
				c-0.162-0.883,0.517-1.697,1.415-1.697h9.134c0.694,0,1.29,0.496,1.415,1.179l3.638,19.87
				C123.858,192.912,123.179,193.726,122.281,193.726z"/>
			<path style="fill:#F49B91;" d="M113.142,213.419l-3.382,2.618l1.964-23.89c0,0,3.743-3.616,3.886-6.94
				c0,0,1.43-0.679,1.787-0.608c0.357,0.072,2.752,0.822,3.181,0.322c0.429-0.5-1.858-1.966-2.073-2.109
				c-0.214-0.143-3.467,0.214-3.467,0.214s2.573-2.144,3.038-2.252c0.465-0.107,2.144-0.322,2.466-0.643
				c0.322-0.322-2.752-0.894-3.288-0.822c-0.536,0.072-3.431,1.537-3.431,1.537s2.18-4.146,2.788-4.718
				c0.608-0.572,1.644-1.823,1.108-2.037c-0.536-0.214-1.465,0-2.109,0.429c-0.556,0.371,0.518-1.343,0.818-1.813
				c0.051-0.081,0.053-0.178,0-0.258c-0.19-0.283-0.773-0.793-2.14,0.463c-1.751,1.608-6.004,5.647-6.433,7.005
				c-0.429,1.358-1.136,4.925-1.136,9.973c0,0-4.802,7.018-7.388,15.883c-2.586,8.865-4.432,24.256-3.201,28.935
				c1.231,4.679,2.463,5.048,5.91,4.802c3.447-0.246,19.946-7.757,19.946-7.757l-2.707-10.376L113.142,213.419z"/>
			<polygon style="fill:#DE706B;" points="118.992,221.005 113.142,213.419 109.76,216.037 107.163,225.153 			"/>
			<path style="fill:#5683C2;" d="M148.19,202.355l-1.049-0.207c0,0-11.993-1.67-14.028-1.227
				c-2.035,0.442-6.017-0.796-20.881,12.83c0,0,10.949,14.253,6.259,24.87l8.251-7.262l1.116,24.688c0,0-6.21,5.645-5.871,12.646
				c0,0-0.452,1.242,15.807,1.355H177.2v-30.711l17.84-1.919c0,0-0.564-3.048-2.145-4.742c-1.581-1.694-1.129-6.775-3.387-8.581
				c-2.258-1.807-2.71-14.678-8.242-17.501c-5.532-2.823-15.747-4.32-15.747-4.32L148.19,202.355z"/>
			<path style="fill:#675161;" d="M162.844,181.275c0.753,0.164,1.39,0.775,1.587,1.52c0.196,0.745-0.058,1.591-0.632,2.105
				c0.619,0.323,1.32,0.799,1.704,1.381c0.384,0.583,0.521,1.365,0.205,1.987c-0.168,0.331-0.448,0.595-0.619,0.925
				c-0.32,0.616-0.217,1.367-0.426,2.029c-0.415,1.312-2.045,1.958-3.376,1.61c-1.331-0.348-2.348-1.455-2.983-2.675
				c-1.229-2.36-1.681-5.193-1.558-7.851c0.03-0.657,0.128-1.369,0.597-1.831c0.463-0.456,1.171-0.548,1.82-0.52
				C160.469,180.013,161.565,180.996,162.844,181.275z"/>
			<path style="fill:#F49B91;" d="M157.804,181.1c0.04,1.309,0.067,2.629,0.107,3.937c0.424-0.415,0.894-0.801,1.448-1.014
				c0.554-0.214,1.206-0.235,1.722,0.058c0.818,0.464,1.061,1.561,0.903,2.489c-0.257,1.512-1.461,3.035-2.918,3.513
				c0.693,4.043,1.45,8.022,2.143,12.065h4.005c0.079,0,0.224,0.124,0.303,0.124c-3.086,2.501-6.488,4.613-10.099,6.268
				c-1.176,0.539-2.396,1.036-3.684,1.156c-1.288,0.12-2.667-0.181-3.611-1.066c-0.818-0.767-1.227-1.891-1.341-3.007
				c-0.113-1.116,0.203-2.364,0.357-3.475c0.872,0.04,1.795-0.098,2.667-0.058c-0.306-1.604-0.534-3.201-0.84-4.805
				c-1.647-0.227-3.192-1.125-4.204-2.444c-1.05-1.37-1.503-3.101-1.791-4.803c-0.601-3.543,0.101-6.315,1.662-10.043
				C149.516,180.453,152.924,180.642,157.804,181.1z"/>
			<g>
				<path style="fill:#675161;" d="M152.684,183.191c-0.035,0.136-2.263-0.371-3.296,0.077c-0.212,0.092-0.426,0.203-0.657,0.202
					c-0.546-0.001-0.587-0.674-0.111-0.838c0.352-0.121,0.653-0.185,0.974-0.219C150.728,182.294,152.627,182.545,152.684,183.191z"
					/>
				<path style="fill:#675161;" d="M143.232,182.317c-0.011,0.157,0.294-0.411,1.938,0.465c0.337,0.18,0.717,0.404,1.139,0.492
					c0.999,0.211,1.441-0.489,0.659-0.848c-0.577-0.265-1.054-0.421-1.658-0.512C144.099,181.734,143.414,182.022,143.232,182.317z"
					/>
				<path style="fill:#675161;" d="M149.039,185.219c-0.007,0.554,0.328,1.008,0.748,1.013c0.419,0.005,0.765-0.44,0.771-0.995
					s-0.328-1.008-0.748-1.012C149.39,184.219,149.045,184.665,149.039,185.219z"/>
				<path style="fill:#675161;" d="M144.601,184.734c-0.007,0.554,0.328,1.008,0.748,1.013c0.419,0.005,0.765-0.44,0.771-0.995
					c0.007-0.554-0.328-1.008-0.748-1.012C144.952,183.734,144.607,184.179,144.601,184.734z"/>
				<path style="fill:#DE706B;" d="M146.179,187.827c-0.165,0.362-0.349,0.742-0.304,1.138c0.043,0.378,0.313,0.72,0.671,0.85
					c0.357,0.13,0.784,0.04,1.06-0.222c-0.353,0.042-0.695-0.209-0.842-0.532c-0.147-0.323-0.13-0.7-0.044-1.045
					c0.085-0.345,0.234-0.67,0.346-1.007c0.18-0.542,0.482-1.654,0.136-2.152C146.838,185.839,146.621,186.861,146.179,187.827z"/>
				<path style="fill:#EE8780;" d="M145.481,191.066c1.627,0.695,3.402,0.824,4.878,0.353c0.054,0.816,0.049,1.611-0.397,2.214
					c-0.447,0.603-1.263,0.952-2.114,0.743c-0.727-0.178-1.388-0.736-1.805-1.381C145.625,192.35,145.578,191.768,145.481,191.066z"
					/>
				<path style="fill:#DE706B;" d="M150.184,193.214c-0.059,0.146-0.126,0.288-0.222,0.418c-0.447,0.603-1.263,0.952-2.114,0.743
					c-0.617-0.151-1.177-0.582-1.59-1.101c0.544-0.355,1.177-0.577,1.826-0.609C148.819,192.629,149.557,192.831,150.184,193.214z"
					/>
				<path style="fill:#675161;" d="M145.481,191.066c1.627,0.695,3.402,0.824,4.878,0.353c0.043,0.641,0.04,1.264-0.175,1.796
					c-0.627-0.383-1.365-0.585-2.1-0.549c-0.649,0.032-1.282,0.254-1.826,0.609c-0.074-0.093-0.152-0.183-0.216-0.281
					C145.625,192.349,145.578,191.768,145.481,191.066z"/>
			</g>
			<path style="fill:#D8D6EB;" d="M151.776,170.005c0,0,7.301-0.584,9.814,2.871c2.923,4.02,1.723,8.665,1.723,8.665l-5.116-0.783
				L151.776,170.005z"/>
			<path style="fill:#6A6EB2;" d="M145.303,177.105c0,0-6.943,0-8.039,0.94c-1.096,0.94,10.179,4.646,20.933,2.714L145.303,177.105z
				"/>
			<path style="fill:#B5B2D8;" d="M145.303,177.105c0,0,2.871-7.83,7.621-7.152c4.75,0.679,5.272,10.806,5.272,10.806
				S146.504,179.454,145.303,177.105z"/>
			<path style="fill:#DE706B;" d="M151.946,202.021c0.824-0.271,1.444-0.944,1.992-1.616c1.975-2.42,3.622-5.3,4.665-8.244
				c-2.185,1.622-4.406,3.264-6.952,4.222c-1.09,0.41-2.255,0.67-3.421,0.749c0.243,0.064,0.489,0.119,0.739,0.153
				c0.299,1.567,0.525,3.128,0.821,4.694C150.509,202.163,151.251,202.251,151.946,202.021z"/>
			<g>
				<g>
					<path style="fill:#386BA0;" d="M150.516,211.831c-0.337,5.886-1.429,11.692-2.016,17.554c-0.28,2.791-0.455,5.59-0.621,8.39
						c-0.227,3.831-0.43,7.664-0.618,11.498c-0.192,3.899-0.469,7.815-0.341,11.719c0.095,2.908,0.198,5.822,0.388,8.726
						c0.024,0.359,0.55,0.365,0.563,0c0.089-2.498,0.384-4.985,0.639-7.47c0.392-3.819,0.536-7.638,0.704-11.472
						c0.302-6.891,0.643-13.783,1.074-20.667c0.382-6.104,1.254-12.146,1.213-18.276
						C151.496,211.194,150.552,211.202,150.516,211.831L150.516,211.831z"/>
				</g>
			</g>
			<g>
				<g>
					<path style="fill:#4380B5;" d="M137.645,257.569c1.608-0.506,3.132-1.295,4.654-2.01c0.786-0.369,1.574-0.733,2.349-1.127
						c0.801-0.406,1.623-0.773,2.349-1.303c0.528-0.386,0.243-1.387-0.482-1.142c-0.853,0.288-1.623,0.731-2.417,1.151
						c-0.766,0.405-1.517,0.833-2.27,1.261c-1.474,0.839-2.918,1.804-4.467,2.499C136.982,257.069,137.252,257.693,137.645,257.569
						L137.645,257.569z"/>
				</g>
			</g>
			<g>
				<g>
					<path style="fill:#4380B5;" d="M150.883,251.633c3.176-1.797,6.619-3.112,9.92-4.659c1.616-0.757,3.19-1.592,4.688-2.564
						c1.363-0.885,3.107-1.982,3.798-3.523c0.142-0.318-0.107-0.867-0.529-0.689c-1.54,0.649-2.838,1.935-4.238,2.838
						c-1.496,0.966-3.075,1.806-4.655,2.624c-3.201,1.658-6.443,3.166-9.473,5.136C149.874,251.135,150.336,251.942,150.883,251.633
						L150.883,251.633z"/>
				</g>
			</g>
			<g>
				<g>
					<path style="fill:#4380B5;" d="M171.726,246.279c-1.735,1.184-3.132,2.729-4.582,4.232c-0.727,0.753-1.449,1.51-2.264,2.17
						c-0.982,0.796-2.08,1.432-3.113,2.157c-1.904,1.335-3.498,3.025-5.097,4.7c-1.573,1.648-3.604,3.466-4.506,5.597
						c-0.18,0.425,0.296,0.884,0.675,0.521c0.843-0.809,1.505-1.799,2.27-2.681c0.772-0.891,1.584-1.748,2.403-2.596
						c1.66-1.719,3.307-3.437,5.305-4.77c1.76-1.175,3.432-2.319,4.896-3.864c1.481-1.563,2.793-3.279,4.544-4.562
						C172.787,246.792,172.29,245.894,171.726,246.279L171.726,246.279z"/>
				</g>
			</g>
			<g>
				<g>
					<path style="fill:#4380B5;" d="M169.626,222.302c1.199,3.026,1.863,6.2,2.828,9.297c0.457,1.466,0.963,2.916,1.626,4.303
						c0.342,0.716,0.721,1.415,1.148,2.084c0.419,0.658,0.823,1.37,1.552,1.703c0.43,0.196,0.918-0.126,0.803-0.618
						c-0.167-0.719-0.66-1.238-1.051-1.848c-0.429-0.668-0.81-1.365-1.154-2.08c-0.691-1.435-1.235-2.925-1.768-4.423
						c-1.039-2.918-1.976-5.915-3.513-8.616C169.957,221.857,169.516,222.024,169.626,222.302L169.626,222.302z"/>
				</g>
			</g>
			<path style="fill:#C8DDED;" d="M157.438,214.731c0,1.239-1.004,2.243-2.243,2.243s-2.243-1.004-2.243-2.243
				c0-1.239,1.004-2.243,2.243-2.243S157.438,213.492,157.438,214.731z"/>
			<path style="fill:#C8DDED;" d="M156.781,224.689c0,1.239-1.004,2.243-2.243,2.243c-1.239,0-2.243-1.004-2.243-2.243
				c0-1.239,1.004-2.243,2.243-2.243C155.777,222.445,156.781,223.45,156.781,224.689z"/>
			<path style="fill:#C8DDED;" d="M131.394,219.819l12.146,0.438c0,0,0.657,10.614-5.909,10.395
				C132.054,230.466,130.957,225.619,131.394,219.819z"/>
			<g>
				<g>
					<path style="fill:#386BA0;" d="M124.903,215.146c-0.13,5.452,0.435,10.848,1.676,16.15c0.102,0.435,0.742,0.247,0.663-0.183
						c-0.965-5.256-1.479-10.622-1.542-15.967C125.694,214.633,124.915,214.633,124.903,215.146L124.903,215.146z"/>
				</g>
			</g>
			<g>
				<path style="fill:#E95C80;" d="M188.077,304.493h-5.974c-1.083-4.995-3.07-10.006-6.745-13.613
					c-2.172-2.132-5.301-3.139-8.305-2.609c-3.713,0.655-6.408,3.511-8.271,6.625c-1.755,2.934-2.922,6.231-3.55,9.598h-6.625
					l-9.129,55.85h56.655L188.077,304.493z M158.823,296.997c1.737-2.938,4.044-5.741,7.444-6.721
					c5.75-1.656,10.326,3.428,12.58,8.088c0.968,2.001,1.757,4.016,2.327,6.129h-25.258
					C156.509,301.867,157.451,299.318,158.823,296.997z"/>
				<polygon style="fill:#D74876;" points="149.604,305.994 141.215,358.702 145.331,355.695 149.921,358.702 151.662,358.702 				
					"/>
			</g>
			<g>
				<g>
					<path style="fill:#386BA0;" d="M120.724,219.966c0.118,0.649,0.248,1.3,0.484,1.918c0.239,0.627,0.51,1.242,0.813,1.841
						c0.298,0.59,0.65,1.152,1.024,1.696c0.366,0.533,0.756,1.152,1.243,1.582c0.269,0.237,0.718-0.065,0.515-0.398
						c-0.33-0.542-0.776-1.022-1.129-1.552c-0.356-0.534-0.676-1.089-0.99-1.649c-0.631-1.124-1.166-2.33-1.643-3.527
						C120.963,219.684,120.686,219.756,120.724,219.966L120.724,219.966z"/>
				</g>
			</g>
			<path style="fill:#F49B91;" d="M177.134,239.137l0.077,4.028l3.242,6.229l-13.102,30.251c0,0-3.119,3.966-4.015,5.337
				c-0.896,1.37-1.792,4.269-1.687,5.27c0.105,1.001,2.003-0.527,2.003-0.527s0.211,2.635-0.632,3.478
				c-0.843,0.843,0.053,1.318,0.843,0.949c0,0,0.474,0.896,1.528-0.053c0,0,0.633,1.001,2.003-0.158c0,0,0.79,0.949,1.634-0.158
				c0.843-1.107,1.687-1.16,1.792-4.322c0.105-3.162,0-4.374,0-4.374s21.835-27.644,24.004-33.219
				c1.453-3.735,0.296-10.691-0.785-14.31C188.541,237.737,182.584,238.821,177.134,239.137z"/>
			<path style="fill:#DE706B;" d="M195.02,241.905c-0.275-1.65-0.632-3.176-0.982-4.348c-5.497,0.18-11.454,1.264-16.904,1.58
				l0.077,4.028l0.109,0.209C182.657,240.426,189.262,239.928,195.02,241.905z"/>
			<path style="fill:#5B97CC;" d="M177.951,206.231c1.522,0.419,3.069,1.053,4.058,2.284c0.802,0.999,1.147,2.278,1.472,3.517
				c0.633,2.412,1.265,4.824,1.898,7.236c0.497,1.895,1.069,3.913,2.559,5.186c0.342,0.292,0.725,0.537,1.036,0.862
				c1.612,1.687,0.617,4.541,1.473,6.711c0.668,1.694,2.474,3.002,2.379,4.82c-0.912-0.034-1.824-0.068-2.735-0.102
				c-0.245-0.009-0.5-0.021-0.716-0.137c-0.283-0.152-0.448-0.454-0.592-0.742c-0.646-1.297-1.175-2.653-1.579-4.045
				c-0.383-1.319-0.659-2.685-1.281-3.91c-0.654-1.29-1.661-2.363-2.47-3.562c-2.142-3.174-2.818-7.075-3.987-10.721
				c-1.051-3.277-2.756-5.408-4.878-7.956C175.641,205.543,176.92,205.947,177.951,206.231z"/>
			<path style="fill:#5B97CC;" d="M136.678,201.975c-6.169-0.888-12.728,2.322-15.812,7.738c-0.398,0.699-0.752,1.505-0.562,2.287
				c2.458-0.212,4.385-2.093,6.514-3.34c2.309-1.353,5.026-1.999,7.697-1.831c2.124,0.134,4.236,0.768,6.348,0.504
				c1.229-0.154,5.307-2.064,3.869-3.858c-0.584-0.729-2.72-0.446-3.562-0.587C139.662,202.637,138.193,202.193,136.678,201.975z"/>
		</g>
		<path style="fill:#EEF8FD;" d="M153.957,125.31c0-18.772-15.218-33.99-33.99-33.99c-18.772,0-33.99,15.218-33.99,33.99
			c0,18.772,15.218,33.99,33.99,33.99c4.621,0,9.025-0.926,13.041-2.596l10.601,12.311l-2.856-16.819
			C148.783,145.977,153.957,136.251,153.957,125.31z"/>
		<path style="fill:#EEF8FD;" d="M389.756,154.245c0-16.245,13.17-29.415,29.415-29.415c16.246,0,29.415,13.17,29.415,29.415
			c0,16.245-13.17,29.415-29.415,29.415c-3.999,0-7.81-0.802-11.286-2.247l-9.174,10.654l2.472-14.556
			C394.234,172.13,389.756,163.713,389.756,154.245z"/>
		<g>
			<path style="fill:#EC876B;" d="M428.172,146.61h-16.627c-1.14,0-2.072,0.933-2.072,2.072v15.151c0,1.14,0.933,2.072,2.072,2.072
				h16.627c1.14,0,2.072-0.932,2.072-2.072v-15.151C430.244,147.543,429.311,146.61,428.172,146.61z"/>
			<g>
				<path style="fill:#EC876B;" d="M426.318,155.976h-12.92v-12.253c0-2.123,1.727-3.85,3.85-3.85h5.22
					c2.123,0,3.85,1.727,3.85,3.85V155.976z M415.549,153.825h8.617v-10.102c0-0.937-0.762-1.699-1.699-1.699h-5.22
					c-0.936,0-1.699,0.762-1.699,1.699V153.825z"/>
			</g>
			<path style="fill:#BB5B45;" d="M423.162,153.35c0-1.825-1.479-3.304-3.304-3.304s-3.304,1.479-3.304,3.304
				c0,1.386,0.854,2.57,2.064,3.061v5.379c0,0.682,0.558,1.241,1.241,1.241c0.682,0,1.241-0.558,1.241-1.241v-5.379
				C422.309,155.92,423.162,154.736,423.162,153.35z"/>
		</g>
		<g>
			<path style="fill:#264456;" d="M134.788,119.835v2.897h-7.768v6.978h-3.423v-11.586h3.261v-3.555h-3.261v-2.752h3.261v-3.292
				h-2.734v2.752h-3.555v-2.752h-4.082v2.884h-4.082v5.135h0.132v2.107h-0.132v7.9h-2.633v-7.9h-8.229v5.135h2.435v3.028h-2.435
				v3.423h2.699v4.082h5.53v-3.95h2.897v3.95h3.818v3.16h-3.818v8.806h4.74v-3.276h4.213v3.276h6.188v-8.806h-7.11l-0.009-3.95
				h-3.677v-3.292h6.978l0.037,3.555h3.782v-3.687h2.897v3.687h5.003v-3.16h3.592v-10.796H134.788z M116.486,129.71h-3.028v-3.028
				h3.028V129.71z M119.778,126.286h-2.765v-7.242h2.765V126.286z M120.305,114.568h-3.555v-2.752h3.555V114.568z M120.568,115.24
				h3.555v2.752h-3.555V115.24z M134.656,129.841h-3.292v-3.292h3.292V129.841z"/>
			<rect x="101.872" y="137.449" style="fill:#264456;" width="8.587" height="8.587"/>
			<rect x="130.508" y="137.449" style="fill:#264456;" width="8.587" height="8.587"/>
			<rect x="101.872" y="108.088" style="fill:#264456;" width="8.587" height="8.587"/>
			<rect x="130.508" y="108.088" style="fill:#264456;" width="8.587" height="8.587"/>
		</g>
	</g>
</g>
</svg>
