<svg xmlns="http://www.w3.org/2000/svg" version="1.1" xmlns:xlink="http://www.w3.org/1999/xlink" width="2000" height="126" viewBox="0 0 2000 126"><svg xml:space="preserve" width="2000" height="126" data-version="2" data-id="lg_H2mMlaqyzPQYcKhfZ5" viewBox="0 0 572 126" x="0" y="0"><rect width="100%" height="100%" fill="transparent"></rect><path fill="#0063db" d="M66.235.84a30.177 30.177 0 0 0-30.303 30.303c0 14.504 22.792 45.325 28.749 53.354.777 1.036 2.072 1.036 2.849 0 5.957-7.77 28.749-38.85 28.749-53.354C96.538 14.308 83.07.84 66.235.84m0 49.469c-10.619 0-19.425-8.547-19.425-19.425s8.547-19.425 19.425-19.425S85.66 20.006 85.66 30.884s-8.806 19.425-19.425 19.425"></path><path fill="#0063db" d="m127.1 119.98-14.245-64.491c-.518-2.331-2.59-4.144-4.921-4.144H101.2c-1.813 0-3.367 1.036-4.144 2.59-6.475 12.432-15.799 25.641-22.792 34.706-1.554 2.072-3.885 3.626-6.475 4.144-3.626.518-6.734-1.036-8.806-3.626-6.734-8.806-16.317-22.274-23.051-34.965-.777-1.554-2.331-2.59-4.144-2.59h-6.993c-2.331 0-4.403 1.554-4.921 4.144L5.37 119.98c-.518 2.072 2.072 3.367 3.626 2.072l18.907-18.907a12.173 12.173 0 0 1 17.094 0l12.691 12.691a12.173 12.173 0 0 0 17.094 0l12.691-12.691a12.173 12.173 0 0 1 17.094 0l18.907 18.907c1.554 1.295 4.144 0 3.626-2.072m34.59-11.78V12.3h18.9l14.66 57.4h.28V12.3h13.42v95.9h-15.48l-18.08-70.01h-.28v70.01zm54.53 0 15.62-95.9h20.41l15.62 95.9H252.8l-2.74-19.04v.27h-17.12l-2.74 18.77zm18.5-31.78h13.56l-6.71-47.4h-.28zm50.95 31.78-14.52-95.9h15.21l9.86 74.39h.27l9.87-74.39h13.84l-14.53 95.9zm41.8 0V12.3h15.07v95.9zm22.33 0 15.62-95.9h20.41l15.62 95.9h-15.07l-2.74-19.04v.27h-17.13l-2.74 18.77zm18.49-31.78h13.57l-6.72-47.4h-.27zm62.33 33.15q-10.96 0-16.72-6.23-5.75-6.24-5.75-17.88V12.3h15.07v74.26q0 4.93 1.99 7.12 1.98 2.19 5.68 2.19 3.7 0 5.69-2.19 1.98-2.19 1.98-7.12V12.3h14.53v73.16q0 11.64-5.76 17.88-5.75 6.23-16.71 6.23m33.15-1.37V12.3h22.33q11.65 0 16.99 5.41 5.34 5.41 5.34 16.65v5.89q0 14.93-9.86 18.91v.27q5.48 1.64 7.74 6.71t2.26 13.57v16.85q0 4.11.27 6.64.28 2.54 1.37 5h-15.34q-.82-2.33-1.1-4.38-.27-2.06-.27-7.4V78.88q0-6.57-2.12-9.18-2.13-2.6-7.33-2.6h-5.21v41.1zm15.07-54.8h5.48q4.52 0 6.78-2.33 2.26-2.33 2.26-7.81v-7.39q0-5.21-1.85-7.54T485.69 26h-6.85zm36.18 54.8 15.62-95.9h20.41l15.62 95.9H551.6l-2.74-19.04v.27h-17.13l-2.74 18.77zm18.49-31.78h13.57l-6.72-47.4h-.27z"></path></svg></svg>